<svg width="14" height="14" viewBox="0 0 14 14" fill="none" xmlns="http://www.w3.org/2000/svg">
<path fill-rule="evenodd" clip-rule="evenodd" d="M7 14C8.85652 14 10.637 13.2625 11.9497 11.9497C13.2625 10.637 14 8.85652 14 7C14 5.14348 13.2625 3.36301 11.9497 2.05025C10.637 0.737498 8.85652 0 7 0C5.14348 0 3.36301 0.737498 2.05025 2.05025C0.737498 3.36301 0 5.14348 0 7C0 8.85652 0.737498 10.637 2.05025 11.9497C3.36301 13.2625 5.14348 14 7 14V14ZM10.2436 6.38138L7.61862 3.75638C7.4536 3.59699 7.23257 3.50879 7.00315 3.51079C6.77373 3.51278 6.55427 3.6048 6.39203 3.76703C6.2298 3.92927 6.13778 4.14873 6.13579 4.37815C6.13379 4.60757 6.22199 4.8286 6.38138 4.99362L7.51275 6.125H4.375C4.14294 6.125 3.92038 6.21719 3.75628 6.38128C3.59219 6.54538 3.5 6.76794 3.5 7C3.5 7.23206 3.59219 7.45462 3.75628 7.61872C3.92038 7.78281 4.14294 7.875 4.375 7.875H7.51275L6.38138 9.00638C6.2978 9.08709 6.23114 9.18364 6.18529 9.2904C6.13943 9.39715 6.11529 9.51197 6.11428 9.62815C6.11327 9.74433 6.13541 9.85955 6.17941 9.96708C6.2234 10.0746 6.28837 10.1723 6.37053 10.2545C6.45269 10.3366 6.55038 10.4016 6.65792 10.4456C6.76545 10.4896 6.88067 10.5117 6.99685 10.5107C7.11303 10.5097 7.22785 10.4856 7.3346 10.4397C7.44136 10.3939 7.53791 10.3272 7.61862 10.2436L10.2436 7.61862C10.4077 7.45454 10.4998 7.23202 10.4998 7C10.4998 6.76798 10.4077 6.54546 10.2436 6.38138V6.38138Z" fill="#FE5151"/>
</svg>
